# xmcd CD database file
#
# Track frame offsets:
#	150
#	15463
#	27325
#	41119
#	52443
#	66088
#	81110
#	96513
#	111132
#	122848
#	137047
#	151509
#	165977
#	179934
#	193731
#
# Disc length: 2782 seconds
#
# Revision: 2
# Processed by: cddbd v1.5.2PL0 Copyright (c) Steve Scherf et al.
# Submitted via: CDex 1.51
#
DISCID=d20adc0f
DTITLE=Songs For A Lazy Sunday - Songs For A Lazy Sunday - Songs For A Lazy Sunday [CD4]
DYEAR=2004
DGENRE=Jazz+Funk
TTITLE0=Miles Davis and Charlie Parker - Embraceable You
TTITLE1=Oscar Peterson Trio - Somebody Loves Me
TTITLE2=Coleman Hawkins - Somebody Loves Me
TTITLE3=Duke Ellington Trio - In A Sentimental Mood
TTITLE4=Mel Torme - It's Easy To Remember
TTITLE5=Miles Davis - Moon Dreams
TTITLE6=Sarah Vaughan - Lover Man
TTITLE7=Les Brown and his Orchestra - Tenderly
TTITLE8=Peggy Lee - But Beautiful
TTITLE9=Charlie Parker and strings - April In Paris
TTITLE10=Billie Eckstine - Blue Moon
TTITLE11=Betty Hutton - It Had To Be You
TTITLE12=Symphony - Errol Garner
TTITLE13=Nat King Cole - For Sentimental Reasons
TTITLE14=Billie Holiday - Trav'lin Light
EXTD=YEAR: 2004
EXTT0=
EXTT1=
EXTT2=
EXTT3=
EXTT4=
EXTT5=
EXTT6=
EXTT7=
EXTT8=
EXTT9=
EXTT10=
EXTT11=
EXTT12=
EXTT13=
EXTT14=
PLAYORDER=
